<svg width="12" height="9" viewBox="0 0 12 9" fill="none" xmlns="http://www.w3.org/2000/svg">
<path d="M3.63594 8.71191C3.61194 8.71191 3.59994 8.68791 3.59994 8.63991C3.59994 8.59191 3.61194 8.56791 3.63594 8.56791C3.88394 8.56791 4.05194 8.51191 4.13994 8.39991C4.22794 8.27991 4.27194 8.05991 4.27194 7.73991V6.01191C4.27194 5.57991 4.19194 5.25991 4.03194 5.05191C3.87994 4.84391 3.63594 4.73991 3.29994 4.73991C3.05994 4.73991 2.81194 4.79991 2.55594 4.91991C2.30794 5.03991 2.10794 5.20391 1.95594 5.41191L1.89594 5.26791C2.17594 4.86791 2.49194 4.54791 2.84394 4.30791C3.19594 4.05991 3.57994 3.93591 3.99594 3.93591C4.44394 3.93591 4.78794 4.07591 5.02794 4.35591C5.27594 4.63591 5.39994 4.99591 5.39994 5.43591V7.73991C5.39994 8.05991 5.44394 8.27991 5.53194 8.39991C5.62794 8.51191 5.79994 8.56791 6.04794 8.56791C6.07194 8.56791 6.08394 8.59191 6.08394 8.63991C6.08394 8.68791 6.07194 8.71191 6.04794 8.71191C5.88794 8.71191 5.70394 8.70791 5.49594 8.69991C5.28794 8.69191 5.06794 8.68791 4.83594 8.68791C4.61194 8.68791 4.39594 8.69191 4.18794 8.69991C3.97994 8.70791 3.79594 8.71191 3.63594 8.71191ZM0.407941 8.71191C0.383941 8.71191 0.371941 8.68791 0.371941 8.63991C0.371941 8.59191 0.383941 8.56791 0.407941 8.56791C0.655941 8.56791 0.823941 8.51191 0.911941 8.39991C0.999941 8.27991 1.04394 8.05991 1.04394 7.73991V5.48391C1.04394 5.23591 1.01594 5.05591 0.959941 4.94391C0.903941 4.82391 0.807941 4.76391 0.671941 4.76391C0.599941 4.76391 0.515941 4.77991 0.419941 4.81191C0.323941 4.83591 0.215941 4.87591 0.0959414 4.93191C0.0639414 4.94791 0.0399414 4.93191 0.0239414 4.88391C0.00794141 4.83591 0.00794141 4.80791 0.0239414 4.79991L1.69194 3.98391C1.73994 3.96791 1.76794 3.95991 1.77594 3.95991C1.86394 3.95991 1.95194 4.05591 2.03994 4.24791C2.12794 4.43991 2.17194 4.71591 2.17194 5.07591V7.73991C2.17194 8.05991 2.21594 8.27991 2.30394 8.39991C2.39994 8.51191 2.57194 8.56791 2.81994 8.56791C2.84394 8.56791 2.85594 8.59191 2.85594 8.63991C2.85594 8.68791 2.84394 8.71191 2.81994 8.71191C2.65994 8.71191 2.47594 8.70791 2.26794 8.69991C2.05994 8.69191 1.83994 8.68791 1.60794 8.68791C1.38394 8.68791 1.16794 8.69191 0.959941 8.69991C0.751941 8.70791 0.567941 8.71191 0.407941 8.71191ZM6.76035 8.71191C6.72835 8.71191 6.71235 8.68791 6.71235 8.63991C6.71235 8.59191 6.72835 8.56791 6.76035 8.56791C7.06435 8.56791 7.26035 8.51591 7.34835 8.41191C7.43635 8.30791 7.48035 8.08391 7.48035 7.73991V5.03991C7.48035 4.86391 7.45635 4.73591 7.40835 4.65591C7.36035 4.56791 7.28035 4.51191 7.16835 4.48791C7.05635 4.45591 6.90435 4.43991 6.71235 4.43991C6.68835 4.43991 6.67635 4.40391 6.67635 4.33191C6.67635 4.25991 6.68835 4.22391 6.71235 4.22391C6.99235 4.22391 7.18435 4.18791 7.28835 4.11591C7.39235 4.03591 7.44835 3.89591 7.45635 3.69591C7.49635 2.36791 7.74835 1.41991 8.21235 0.851914C8.67635 0.283914 9.36035 -8.60691e-05 10.2643 -8.60691e-05C10.7123 -8.60691e-05 11.0603 0.0599139 11.3083 0.179914C11.5563 0.299914 11.6803 0.475914 11.6803 0.707913C11.6803 0.899914 11.6163 1.04791 11.4883 1.15191C11.3603 1.24791 11.2203 1.29591 11.0683 1.29591C10.8523 1.29591 10.7003 1.24391 10.6123 1.13991C10.5323 1.02791 10.4643 0.907914 10.4083 0.779914C10.3523 0.651914 10.2843 0.535913 10.2043 0.431913C10.1323 0.327914 9.99635 0.275914 9.79635 0.275914C9.45235 0.275914 9.16835 0.519914 8.94435 1.00791C8.72035 1.49591 8.60835 2.30791 8.60835 3.44391V7.73991C8.60835 7.97191 8.63235 8.14791 8.68035 8.26791C8.72835 8.38791 8.82835 8.46791 8.98035 8.50791C9.13235 8.54791 9.36435 8.56791 9.67635 8.56791C9.70835 8.56791 9.72435 8.59191 9.72435 8.63991C9.72435 8.68791 9.70835 8.71191 9.67635 8.71191C9.39635 8.71191 9.12035 8.70791 8.84835 8.69991C8.58435 8.69191 8.31235 8.68791 8.03235 8.68791C7.80035 8.68791 7.57235 8.69191 7.34835 8.69991C7.13235 8.70791 6.93635 8.71191 6.76035 8.71191ZM9.89235 4.69191C9.58035 4.61991 9.28035 4.57191 8.99235 4.54791C8.71235 4.51591 8.41235 4.49991 8.09235 4.49991V4.18791C8.39635 4.18791 8.69635 4.17591 8.99235 4.15191C9.28835 4.12791 9.60035 4.09991 9.92835 4.06791C9.95235 4.06791 9.97235 4.09991 9.98835 4.16391C10.0043 4.21991 10.0123 4.28391 10.0123 4.35591C10.0123 4.43591 9.99635 4.51591 9.96435 4.59591C9.94035 4.66791 9.91635 4.69991 9.89235 4.69191Z" fill="#7A0C14"/>
</svg>
